<?xml version="1.0" encoding="UTF-8"?>
<svg version="1.1" xmlns="http://www.w3.org/2000/svg" width="512" height="512">
<path d="M0 0 C0.85972412 0.31161575 1.71944824 0.62323151 2.60522461 0.94429016 C5.35687766 1.94949086 8.09942352 2.97630981 10.83984375 4.01171875 C11.72711151 4.34693542 12.61437927 4.6821521 13.52853394 5.02752686 C19.13578699 7.15752891 24.72643748 9.32886846 30.31216431 11.51461792 C35.66622562 13.60943198 41.02495555 15.69226159 46.3828125 17.77734375 C47.49242844 18.2095372 48.60204437 18.64173065 49.74528503 19.08702087 C60.62974443 23.32472119 71.52930406 27.5227522 82.43255615 31.71182251 C85.64832392 32.94767389 88.86352943 34.18497805 92.07861328 35.42260742 C102.30679476 39.35832533 112.53934128 43.28193867 122.78330994 47.17640686 C127.60164619 49.00901008 132.41790213 50.84704412 137.23397827 52.68557739 C139.53504074 53.56223698 141.83712995 54.43620679 144.14028931 55.30734253 C147.3317893 56.51462941 150.51970943 57.73095217 153.70703125 58.94921875 C154.64829361 59.30250748 155.58955597 59.6557962 156.55934143 60.01979065 C162.3791545 62.25733515 167.56327607 64.4414004 171.77734375 69.19921875 C173.33208839 73.31471926 173.1091846 76.8160532 171.83984375 81.01171875 C169.6416056 83.71724263 167.94427708 85.45950208 164.83984375 87.01171875 C164.74711076 96.31293201 164.67606226 105.61398582 164.63259506 114.91556072 C164.61173155 119.23480765 164.58343688 123.553738 164.53808594 127.87280273 C164.49458348 132.0419761 164.47069734 136.21084521 164.46033478 140.38022804 C164.45295125 141.96985475 164.43853272 143.55946505 164.41692352 145.14896202 C164.38782967 147.37791125 164.38389004 149.60560785 164.38574219 151.8347168 C164.37685974 153.102686 164.36797729 154.37065521 164.35882568 155.67704773 C164.92386798 159.59421903 166.23551586 161.11491263 168.83984375 164.01171875 C169.29394531 166.7824707 169.29394531 166.7824707 169.23046875 169.75 C169.21757812 170.81669922 169.2046875 171.88339844 169.19140625 172.98242188 C169.14113281 174.63661133 169.14113281 174.63661133 169.08984375 176.32421875 C169.07179688 177.44634766 169.05375 178.56847656 169.03515625 179.72460938 C168.98813094 182.48734607 168.9163909 185.24964237 168.83984375 188.01171875 C162.89984375 188.01171875 156.95984375 188.01171875 150.83984375 188.01171875 C150.78603594 183.90737824 150.74626162 179.80373882 150.71484375 175.69921875 C150.69808594 174.53197266 150.68132812 173.36472656 150.6640625 172.16210938 C150.65761719 171.04384766 150.65117187 169.92558594 150.64453125 168.7734375 C150.63405762 167.74178467 150.62358398 166.71013184 150.61279297 165.6472168 C150.83984375 163.01171875 150.83984375 163.01171875 152.83984375 160.01171875 C153.49984375 160.01171875 154.15984375 160.01171875 154.83984375 160.01171875 C154.83984375 137.24171875 154.83984375 114.47171875 154.83984375 91.01171875 C138.5639908 97.21711323 138.5639908 97.21711323 122.29003906 103.42749023 C120.24941775 104.20444504 118.20873203 104.98123069 116.16796875 105.7578125 C115.10884277 106.16294067 114.0497168 106.56806885 112.95849609 106.98547363 C111.94384277 107.37110474 110.92918945 107.75673584 109.88378906 108.15405273 C109.00442688 108.48936508 108.1250647 108.82467743 107.21905518 109.17015076 C105.10409608 109.91824816 103.02532978 110.51372358 100.83984375 111.01171875 C100.90112789 121.84323014 100.9782869 132.67450203 101.07555866 143.50575352 C101.12023335 148.53547619 101.15949594 153.56511841 101.1862793 158.5949707 C101.21234111 163.45157777 101.25276406 168.30787473 101.30303001 173.16428947 C101.31967924 175.01453728 101.33120561 176.86483869 101.33745766 178.71515083 C101.34711992 181.31246358 101.37520422 183.90898648 101.4074707 186.50610352 C101.40531807 187.64654617 101.40531807 187.64654617 101.40312195 188.81002808 C101.49252649 193.91847448 102.6069652 197.41508916 104.83984375 202.01171875 C107.33865756 210.87114954 105.68372717 219.35129694 101.62109375 227.4375 C96.50484338 235.89352492 89.46061443 239.9440632 80.1015625 242.56640625 C77.83984375 243.01171875 77.83984375 243.01171875 73.83984375 243.01171875 C73.67484375 244.16671875 73.50984375 245.32171875 73.33984375 246.51171875 C70.2313342 260.16772276 61.83102147 271.61949518 52.83984375 282.01171875 C52.24558594 282.7078125 51.65132813 283.40390625 51.0390625 284.12109375 C45.57741846 290.02996919 38.03182763 295.41572681 30.83984375 299.01171875 C30.26978683 302.17870162 30.15999478 304.85465851 30.83984375 308.01171875 C35.61290921 313.13168264 41.27262695 314.66994562 48.0480957 314.99487305 C49.49188599 315.03414917 49.49188599 315.03414917 50.96484375 315.07421875 C65.2272938 315.9095664 76.50210099 318.75478525 87.83984375 328.01171875 C88.39929688 327.23570312 88.95875 326.4596875 89.53515625 325.66015625 C106.77143789 302.23216502 129.75656907 284.38555826 159.13769531 279.640625 C187.81390285 275.5879335 215.4712752 280.96718139 239.34765625 297.77734375 C262.18571137 315.25469783 277.65619646 339.29668505 281.83984375 368.01171875 C283.46603935 399.35047915 278.36601924 428.08958633 256.83984375 452.01171875 C239.18403074 471.45479679 215.2450503 485.38899564 188.62133789 487.23486328 C173.98369604 487.72801507 159.85083246 487.56686082 145.83984375 483.01171875 C144.86966309 482.69823486 144.86966309 482.69823486 143.87988281 482.37841797 C127.66005459 476.92414324 114.8814117 467.9696647 102.83984375 456.01171875 C102.11796875 455.32722656 101.39609375 454.64273437 100.65234375 453.9375 C96.20298705 449.67033678 96.20298705 449.67033678 94.915806 447.33582956 C93.29301864 444.56096169 92.03684132 442.41320977 88.89857638 441.36058843 C86.46620798 441.11686008 84.11647364 441.09486252 81.67219543 441.14543152 C80.74645161 441.13677812 79.82070778 441.12812473 78.86691111 441.11920911 C75.76303579 441.09864067 72.66163973 441.12796446 69.55786133 441.15698242 C67.33378785 441.15236902 65.10971895 441.14465345 62.88566589 441.13406372 C56.84440533 441.11384149 50.80395612 441.13637159 44.76276231 441.16589522 C38.44822086 441.18894524 32.13380781 441.17098084 25.81925964 441.15681458 C15.2177014 441.13825247 4.61641999 441.14264419 -5.98510742 441.16625977 C-16.8988585 441.1904803 -27.81253824 441.20570212 -38.72631836 441.20532227 C-39.39893494 441.20530514 -40.07155151 441.20528802 -40.76455041 441.20527037 C-51.96766618 441.20452789 -63.17077303 441.19544254 -74.37388307 441.18423635 C-81.9024993 441.17799085 -89.43095573 441.18512842 -96.95955122 441.20345438 C-101.63259704 441.21341978 -106.30562614 441.2156839 -110.97868156 441.21628189 C-113.15319189 441.21839876 -115.32770191 441.22401368 -117.50219345 441.23329735 C-120.45935519 441.24557549 -123.4162788 441.24582784 -126.37345886 441.24308777 C-127.67863591 441.25315213 -127.67863591 441.25315213 -129.01018018 441.26341981 C-134.93211299 441.23976201 -134.93211299 441.23976201 -137.16015625 439.01171875 C-137.43359375 436.5078125 -137.43359375 436.5078125 -137.53515625 433.44921875 C-137.86781864 428.23332346 -138.93868631 424.38155003 -141.3203125 419.75390625 C-142.16015625 418.01171875 -142.16015625 418.01171875 -142.16015625 416.01171875 C-143.21465218 416.0217115 -143.21465218 416.0217115 -144.29045105 416.03190613 C-150.92583126 416.09209653 -157.56113493 416.13773329 -164.1967268 416.16715527 C-167.60791386 416.18279014 -171.01887474 416.20398789 -174.42993164 416.23803711 C-178.35430159 416.27696366 -182.27858096 416.29144605 -186.203125 416.3046875 C-187.42412399 416.32017136 -188.64512299 416.33565521 -189.90312195 416.35160828 C-191.04392715 416.35183487 -192.18473236 416.35206146 -193.36010742 416.35229492 C-194.36160324 416.35895676 -195.36309906 416.36561859 -196.39494324 416.3724823 C-199.67297351 415.94481404 -201.51035878 414.96315988 -204.16015625 413.01171875 C-206.18789213 409.97011493 -206.41622248 409.32162111 -206.46655273 405.89501953 C-206.48254013 405.070513 -206.49852753 404.24600647 -206.51499939 403.39651489 C-206.52036209 402.50898529 -206.52572479 401.62145569 -206.53125 400.70703125 C-206.54027847 399.79090057 -206.54930695 398.8747699 -206.55860901 397.93087769 C-206.5731171 395.99252595 -206.58199963 394.05412517 -206.58569336 392.11572266 C-206.59758512 389.15443105 -206.64676017 386.19522644 -206.69726562 383.234375 C-206.70673052 381.35027058 -206.71396524 379.46615337 -206.71875 377.58203125 C-206.73828232 376.69855011 -206.75781464 375.81506897 -206.77793884 374.90481567 C-206.74866758 370.90350425 -206.43279594 368.50613016 -204.47607422 364.95776367 C-199.10050084 361.80294882 -193.6669144 362.28598116 -187.546875 362.3046875 C-186.20878354 362.29156404 -184.87071185 362.27625781 -183.53266907 362.25886536 C-180.02271031 362.21907633 -176.51327046 362.20882904 -173.00311279 362.20483398 C-169.41662923 362.19549075 -165.83044908 362.15806997 -162.24414062 362.12304688 C-155.21618897 362.05853404 -148.18838598 362.02524239 -141.16015625 362.01171875 C-140.960271 361.40286331 -140.76038574 360.79400787 -140.55444336 360.16670227 C-140.28897705 359.36314804 -140.02351074 358.55959381 -139.75 357.73168945 C-139.48823975 356.93720901 -139.22647949 356.14272858 -138.95678711 355.32417297 C-133.53317692 339.58055703 -124.27865737 328.63134184 -109.8125 320.6328125 C-100.45886548 316.48119932 -91.79562387 315.4320243 -81.63867188 315.10351562 C-74.67578357 314.68900254 -69.19242424 313.08982061 -64.16015625 308.01171875 C-63.16903977 305.45960752 -62.86987623 303.94727369 -63.1640625 301.22265625 C-64.90462213 297.35929645 -68.28893598 296.0109789 -71.87890625 294.0078125 C-88.74775494 283.74592954 -101.41400206 264.68671988 -107.16015625 246.01171875 C-107.16015625 245.02171875 -107.16015625 244.03171875 -107.16015625 243.01171875 C-108.30291016 242.89957031 -108.30291016 242.89957031 -109.46875 242.78515625 C-120.11708024 241.4291891 -126.9348061 237.37048005 -133.72265625 229.07421875 C-137.85132447 223.15047739 -139.36508542 216.18423959 -139.16015625 209.01171875 C-138.30721882 204.23987961 -137.33956739 199.37054103 -135.16015625 195.01171875 C-135.03772587 192.35797023 -134.97446824 189.72873512 -134.95483398 187.07373047 C-134.94493439 186.25413849 -134.93503479 185.43454651 -134.92483521 184.59011841 C-134.89318092 181.87391067 -134.86844728 179.15768543 -134.84375 176.44140625 C-134.82318386 174.56095925 -134.80218748 172.68051692 -134.78077698 170.80007935 C-134.72552115 165.84515144 -134.67612737 160.89018158 -134.62792969 155.93518066 C-134.57774027 150.88122818 -134.52204086 145.82733681 -134.46679688 140.7734375 C-134.35917237 130.85291676 -134.25773694 120.93234301 -134.16015625 111.01171875 C-135.08852295 110.74479218 -135.08852295 110.74479218 -136.03564453 110.47247314 C-141.81049694 108.7809176 -147.43081379 106.87014793 -153.03515625 104.68359375 C-153.8439624 104.37149963 -154.65276855 104.05940552 -155.48608398 103.737854 C-158.045475 102.74930061 -160.60283492 101.75561219 -163.16015625 100.76171875 C-165.67882565 99.78761278 -168.19788568 98.81452332 -170.71704102 97.8416748 C-172.3840393 97.1959424 -174.04990211 96.5472708 -175.71459961 95.89562988 C-179.87406842 94.26874911 -184.04126119 92.68391285 -188.24609375 91.17773438 C-189.06198975 90.87885315 -189.87788574 90.57997192 -190.71850586 90.27203369 C-192.25303818 89.71109087 -193.79270224 89.16390215 -195.33813477 88.63372803 C-200.48584531 86.72780601 -203.03082904 84.54787317 -206.16015625 80.01171875 C-206.7890625 77.4140625 -206.7890625 77.4140625 -206.72265625 74.94921875 C-206.72394531 74.13324219 -206.72523438 73.31726563 -206.7265625 72.4765625 C-205.9358054 69.03540576 -204.63656712 67.55505313 -202.16015625 65.01171875 C-199.35562554 63.46144285 -196.41413883 62.38038687 -193.41015625 61.27734375 C-192.53037109 60.94019348 -191.65058594 60.60304321 -190.74414062 60.25567627 C-188.85587559 59.53331069 -186.96515688 58.81733235 -185.07226562 58.10717773 C-182.20395148 57.02819336 -179.34505712 55.92749818 -176.48828125 54.81835938 C-170.38513655 52.44982418 -164.27296459 50.10517851 -158.16015625 47.76171875 C-155.88292296 46.88758741 -153.60574317 46.01331668 -151.32861328 45.13891602 C-147.79853231 43.78343324 -144.26840466 42.42807319 -140.73806763 41.07325745 C-132.81144807 38.03112677 -124.88731412 34.98260604 -116.96484375 31.9296875 C-94.69308509 23.34882335 -72.40843708 14.80317387 -50.09765625 6.32421875 C-49.00201355 5.90768036 -47.90637085 5.49114197 -46.77752686 5.0619812 C-43.7061643 3.89466092 -40.63442612 2.72833629 -37.5625 1.5625 C-36.64952652 1.21561127 -35.73655304 0.86872253 -34.7959137 0.51132202 C-33.96083786 0.1947464 -33.12576202 -0.12182922 -32.26538086 -0.44799805 C-31.17827065 -0.86048042 -31.17827065 -0.86048042 -30.06919861 -1.28129578 C-19.94207518 -5.03172547 -9.87495025 -3.69738935 0 0 Z " fill="#3863CC" transform="translate(218.16015625,13.98828125)"/>
<path d="M0 0 C0.72413373 3.31143006 1.16354255 6.47844221 1.31640625 9.86328125 C1.37924805 11.19262695 1.37924805 11.19262695 1.44335938 12.54882812 C1.48267578 13.46083984 1.52199219 14.37285156 1.5625 15.3125 C1.60568359 16.24384766 1.64886719 17.17519531 1.69335938 18.13476562 C1.79897225 20.42304454 1.90107752 22.71142372 2 25 C5.64311132 26.24437669 9.27683998 27.33994378 13 28.3125 C19.73160578 30.37134195 23.45888444 33.61241077 26.875 39.75 C30.04449724 46.68391629 29.89577912 52.03711421 27.4375 59.1875 C24.63821506 65.51290175 20.4621294 69.16150961 14.125 71.8125 C9.83820086 73.24143305 5.49150274 73.69848708 1 74 C-0.58010369 77.62383062 -2.1110806 81.24679556 -3.5078125 84.9453125 C-11.84225071 106.7277383 -26.39292193 123.90491871 -47.73046875 133.78125 C-67.93811411 142.60256849 -92.10967926 144.82775485 -113 137 C-114.16273438 136.5875 -115.32546875 136.175 -116.5234375 135.75 C-139.40225711 126.86109878 -155.06063536 109.16175812 -164.84765625 87.06640625 C-166.45636188 82.7856133 -167.40724708 78.52740589 -168 74 C-168.75023437 73.98582031 -169.50046875 73.97164063 -170.2734375 73.95703125 C-178.61598216 73.56827287 -185.76471063 72.19135484 -191.8828125 66.13671875 C-196.75743001 60.07288296 -198.68424914 53.8004402 -198 46 C-196.23590644 39.26554066 -193.0677203 33.75366024 -187.05859375 29.9140625 C-182.31349477 27.8071305 -177.07247938 26.99342326 -172 26 C-171.01 22.535 -171.01 22.535 -170 19 C-169.41596437 19.06994989 -168.83192873 19.13989979 -168.23019505 19.21196938 C-161.51145212 19.95734386 -154.87513245 20.16570434 -148.11889648 20.19287109 C-146.97431473 20.20104858 -145.82973297 20.20922607 -144.65046692 20.21765137 C-140.89068093 20.24231076 -137.1309322 20.25897138 -133.37109375 20.2734375 C-131.43081645 20.28142302 -131.43081645 20.28142302 -129.45134163 20.28956985 C-124.00800775 20.31075392 -118.56468571 20.32988319 -113.12132168 20.34119225 C-105.38266519 20.35738999 -97.64451365 20.39051644 -89.90604728 20.44759309 C-83.76580488 20.49130247 -77.62575707 20.50697066 -71.48536873 20.51332474 C-68.89529893 20.51999504 -66.30523525 20.53510519 -63.71526909 20.55921555 C-39.79075851 20.76923136 -21.76107079 17.76091912 -3.1171875 1.7578125 C-1 0 -1 0 0 0 Z " fill="#F7CECE" transform="translate(286,175)"/>
<path d="M0 0 C1.43845027 1.20360125 2.85450394 2.43434962 4.25 3.6875 C5.48169922 4.77998047 5.48169922 4.77998047 6.73828125 5.89453125 C20.76981219 19.07437594 28.5371193 36.45915475 29.43359375 55.609375 C29.94531376 77.17581474 23.33241316 95.59557234 8.4921875 111.41015625 C-4.77648369 124.8868728 -21.74197744 133.59019216 -40.91552734 133.92895508 C-63.15545933 134.01259978 -81.70822983 127.33343074 -98 112 C-113.71762651 95.46454577 -119.57618273 75.10825866 -119.05859375 52.62890625 C-118.35211251 37.29445239 -110.92745954 22.02101986 -100.75 10.6875 C-100.02167969 9.86636719 -99.29335938 9.04523438 -98.54296875 8.19921875 C-90.31189716 -0.56374762 -80.0982655 -7.25534809 -68.75 -11.3125 C-67.93144531 -11.61027344 -67.11289062 -11.90804688 -66.26953125 -12.21484375 C-44.08772321 -19.00391617 -18.42946644 -13.6610031 0 0 Z " fill="#FDE992" transform="translate(440.75,337.3125)"/>
<path d="M0 0 C0.93829651 0.36011169 1.87659302 0.72022339 2.84332275 1.09124756 C5.93988053 2.28334813 9.02833325 3.49512539 12.1171875 4.70703125 C14.32843485 5.56258294 16.54019853 6.41680118 18.75244141 7.26977539 C23.43495992 9.07783508 28.11419715 10.89404472 32.79101562 12.71679688 C39.89837835 15.48588048 47.01442972 18.23204599 54.1328125 20.97265625 C63.64313255 24.63546491 73.1509249 28.30471726 82.65625 31.98046875 C97.01187515 37.53085864 111.37596872 43.05912814 125.7421875 48.58203125 C127.37979034 49.21164261 127.37979034 49.21164261 129.05047607 49.85397339 C131.15411177 50.66274855 133.25787715 51.47118649 135.36178589 52.2792511 C137.31747489 53.03178084 139.27220908 53.78679789 141.2258606 54.54460144 C145.22624224 56.09364417 149.22368474 57.61965138 153.28320312 59.00732422 C155.06500977 59.63018311 155.06500977 59.63018311 156.8828125 60.265625 C157.86797852 60.59103271 158.85314453 60.91644043 159.86816406 61.25170898 C161.9921875 62.51953125 161.9921875 62.51953125 162.81152344 65.16040039 C162.90095215 66.32817017 162.90095215 66.32817017 162.9921875 67.51953125 C156.4764962 70.93538204 149.80651208 73.65196149 142.94140625 76.28515625 C141.80564651 76.72341736 140.66988678 77.16167847 139.49971008 77.61322021 C137.11280329 78.53289322 134.72510797 79.45052203 132.33666992 80.36621094 C128.67169749 81.77259731 125.01055719 83.18864395 121.34960938 84.60546875 C119.02626614 85.49928163 116.70270594 86.39253079 114.37890625 87.28515625 C112.7336219 87.9225473 112.7336219 87.9225473 111.05509949 88.57281494 C110.04006851 88.96031921 109.02503754 89.34782349 107.97924805 89.74707031 C107.08626511 90.09030334 106.19328217 90.43353638 105.27323914 90.78717041 C102.9921875 91.51953125 102.9921875 91.51953125 99.9921875 91.51953125 C99.95480469 90.79507813 99.91742188 90.070625 99.87890625 89.32421875 C99.50196268 83.78093089 99.15608809 79.26538214 95.9921875 74.51953125 C92.08781997 71.91661956 88.80493222 72.2324718 84.27505493 72.24537659 C83.37355441 72.24013991 82.4720539 72.23490323 81.54323518 72.22950786 C78.51006164 72.21445691 75.47705604 72.2138016 72.44384766 72.21313477 C70.27420261 72.20551674 68.10456027 72.19708986 65.93492126 72.18791199 C60.03205371 72.16592564 54.12923797 72.15716259 48.2263341 72.15208554 C44.54089139 72.14844702 40.85546237 72.14220962 37.17002487 72.13508415 C24.31972403 72.11057582 11.46946364 72.09753465 -1.38085938 72.09399414 C-13.37052368 72.09035723 -25.35984141 72.06045424 -37.34943426 72.01858956 C-47.63399779 71.98393373 -57.91847638 71.96844652 -68.20309794 71.96774811 C-74.34969182 71.96695372 -80.49602534 71.9581408 -86.64255905 71.92975044 C-92.42266641 71.90365045 -98.20229604 71.90131963 -103.98243523 71.91740608 C-106.10569865 71.91922697 -108.22898905 71.91247255 -110.35219383 71.89658737 C-113.24760441 71.87624289 -116.14132517 71.88661022 -119.03671265 71.90480042 C-119.88000165 71.89160045 -120.72329066 71.87840048 -121.59213388 71.86480051 C-125.92121889 71.92706348 -127.51229475 72.12066017 -131.00600624 74.93295193 C-134.01567676 78.82181554 -134.12223377 80.76393233 -134.0703125 85.64453125 C-134.06128906 86.74023438 -134.05226563 87.8359375 -134.04296875 88.96484375 C-134.03136719 89.80789062 -134.01976562 90.6509375 -134.0078125 91.51953125 C-136.0078125 92.51953125 -136.0078125 92.51953125 -137.9316864 91.99681091 C-139.10958488 91.54097374 -139.10958488 91.54097374 -140.3112793 91.07592773 C-141.2036882 90.73484482 -142.09609711 90.3937619 -143.01554871 90.04234314 C-143.98623795 89.66227615 -144.95692719 89.28220917 -145.95703125 88.890625 C-146.96184036 88.50391129 -147.96664948 88.11719757 -149.00190735 87.71876526 C-152.23586084 86.4720146 -155.46553836 85.2145637 -158.6953125 83.95703125 C-160.82330455 83.13538583 -162.95155696 82.31441437 -165.08007812 81.49414062 C-169.19119871 79.90829563 -173.29730468 78.31039396 -177.39990234 76.70263672 C-180.8677725 75.34471141 -184.34332334 74.01720728 -187.83837891 72.73095703 C-188.54630081 72.46469009 -189.25422272 72.19842316 -189.9835968 71.92408752 C-191.81331931 71.23661871 -193.64826889 70.56310516 -195.48364258 69.89086914 C-198.0078125 68.51953125 -198.0078125 68.51953125 -198.88549805 66.35327148 C-198.92586182 65.74813721 -198.96622559 65.14300293 -199.0078125 64.51953125 C-196.3227767 62.36756641 -193.86470395 60.89958433 -190.65307617 59.67626953 C-189.78758148 59.34300659 -188.92208679 59.00974365 -188.03036499 58.66638184 C-187.08835236 58.31112427 -186.14633972 57.9558667 -185.17578125 57.58984375 C-184.17785553 57.207677 -183.17992981 56.82551025 -182.15176392 56.4317627 C-178.83521058 55.16333331 -175.51527984 53.90399488 -172.1953125 52.64453125 C-169.84767372 51.74847776 -167.50026555 50.85181986 -165.15307617 49.95458984 C-160.23722123 48.07676279 -155.32001497 46.20252902 -150.40136719 44.33203125 C-139.99671302 40.37509685 -129.59756324 36.40375644 -119.19799805 32.43347168 C-115.81142718 31.14114057 -112.42431343 29.8502408 -109.03710938 28.55957031 C-97.41779342 24.12972035 -85.80773115 19.67706163 -74.21307564 15.18310928 C-72.23135938 14.41504335 -70.24948078 13.6473977 -68.26756287 12.87985229 C-61.96197209 10.43745145 -55.65805999 7.99087399 -49.35668945 5.53759766 C-47.07769331 4.65382541 -44.79864337 3.77019187 -42.51953125 2.88671875 C-41.49906708 2.48769348 -40.47860291 2.08866821 -39.42721558 1.67755127 C-36.63053844 0.59583831 -33.82406757 -0.45093618 -31.0078125 -1.48046875 C-30.16666901 -1.80110291 -29.32552551 -2.12173706 -28.45889282 -2.4520874 C-18.37508974 -5.960133 -9.65583493 -3.84219919 0 0 Z " fill="#4570C6" transform="translate(219.0078125,23.48046875)"/>
<path d="M0 0 C0.84074082 0.00223072 1.68148164 0.00446144 2.54769945 0.00675976 C3.87711903 0.00441978 3.87711903 0.00441978 5.23339558 0.00203252 C8.22681124 -0.00198145 11.22017689 0.00121369 14.21359301 0.00434887 C16.35002214 0.00299501 18.48645105 0.00121516 20.62287951 -0.00096118 C26.44295554 -0.00553727 32.26301394 -0.00374524 38.08309031 -0.0005821 C44.15918448 0.0019406 50.23527709 -0.00039578 56.31137133 -0.00196826 C66.51722534 -0.00379023 76.72307212 -0.00138296 86.92892504 0.00337231 C98.7469465 0.00881498 110.56495072 0.00705234 122.38297176 0.00154591 C132.5094645 -0.00298447 142.63595203 -0.00363614 152.76244545 -0.00101542 C158.81941145 0.00054777 164.87636934 0.00073997 170.93333483 -0.00255191 C176.62626059 -0.00542954 182.31916401 -0.00345695 188.01208735 0.00234234 C190.10799227 0.00367053 192.20389906 0.00327485 194.29980326 0.00107968 C197.14800479 -0.00162955 199.99613349 0.00174649 202.84433031 0.00675976 C204.10544154 0.00341368 204.10544154 0.00341368 205.39202976 0 C211.08186505 0.01959358 211.08186505 0.01959358 212.19601488 1.13374341 C212.56165186 7.18735539 212.63843419 13.24267162 212.71090746 19.30610669 C212.74253984 21.35101828 212.79028651 23.39574666 212.85446215 25.43989575 C212.94572058 28.38542265 212.98451902 31.32764129 213.01242113 34.27436841 C213.05057436 35.18599743 213.08872759 36.09762646 213.12803698 37.03688061 C213.12008512 39.63538255 213.02599665 41.66899617 212.19601488 44.13374341 C198.8535836 57.17876707 166.54080229 57.10513953 149.24288988 58.23139966 C147.9494063 58.31584836 146.65592272 58.40029706 145.32324266 58.48730481 C131.24543579 59.3618189 117.17352289 59.48607468 103.07101488 59.44624341 C101.75137743 59.44475293 100.43173998 59.44326245 99.07211351 59.4417268 C9.61908054 59.29717442 9.61908054 59.29717442 -6.80398512 44.13374341 C-7.64760022 40.87632957 -7.5266649 37.71844518 -7.42507887 34.37202466 C-7.41896086 33.42562619 -7.41284285 32.47922772 -7.40653944 31.50415051 C-7.37960328 28.48376426 -7.3104256 25.46593248 -7.24148512 22.44624341 C-7.21996331 20.40134763 -7.20105213 18.35642258 -7.18484449 16.31147778 C-7.1426804 12.58431385 -7.09750564 8.85751752 -7.01272535 5.13105786 C-6.98891043 4.00665043 -6.98891043 4.00665043 -6.96461439 2.85952771 C-6.59147149 -1.14948108 -3.2865327 0.01131754 0 0 Z " fill="#4570C6" transform="translate(98.80398511886597,102.8662565946579)"/>
<path d="M0 0 C1.01835937 0.2784375 2.03671875 0.556875 3.0859375 0.84375 C28.3739161 8.54297708 48.53265457 25.87904931 61.04345703 48.921875 C73.03775257 72.16635912 74.16685563 99.03739537 66.30102539 123.81762695 C61.91271589 136.6005615 55.18035002 148.08137008 46 158 C45.30390625 158.77601563 44.6078125 159.55203125 43.890625 160.3515625 C28.32119966 176.88697408 4.13450933 188.43304523 -18.62890625 189.3359375 C-31.00800112 189.52323301 -42.1825347 188.75060033 -54 185 C-55.14597656 184.63777344 -56.29195313 184.27554688 -57.47265625 183.90234375 C-80.90786965 175.66231043 -99.71713611 157.89642027 -111.25 136.1875 C-114.64250717 129.0820822 -116.97427284 121.59578406 -119 114 C-119.18763916 113.30205322 -119.37527832 112.60410645 -119.56860352 111.88500977 C-124.96445933 90.03796109 -120.42239737 64.99881947 -109.07373047 45.77441406 C-108.71939941 45.18885742 -108.36506836 44.60330078 -108 44 C-107.32066406 42.87335938 -106.64132812 41.74671875 -105.94140625 40.5859375 C-91.84867773 18.91675127 -70.0281138 3.90254242 -44.85253906 -1.91967773 C-30.16131561 -4.80249011 -14.38253657 -3.9818001 0 0 Z M-79 42 C-79.66386719 42.65613281 -80.32773437 43.31226563 -81.01171875 43.98828125 C-95.56880996 59.26504888 -99.5532248 78.30259257 -99.08886719 98.65820312 C-98.36738396 117.67047536 -89.04651431 133.72539978 -76 147 C-75.38640625 147.62648438 -74.7728125 148.25296875 -74.140625 148.8984375 C-59.04165534 163.15857551 -39.74042294 167.50050478 -19.5078125 167.21484375 C-13.70630686 167.02017047 -8.49077424 165.85783731 -3 164 C-1.95585937 163.67128906 -0.91171875 163.34257812 0.1640625 163.00390625 C18.5418813 156.66597113 33.08984823 143.13807712 42 126 C50.35126299 107.11799807 51.79218947 86.21995714 44.9375 66.625 C37.14217105 47.65787695 23.42005342 32.5749628 4.41796875 24.47265625 C-25.60794062 13.24953736 -56.62056839 18.72676621 -79 42 Z " fill="#6BDCDC" transform="translate(421,304)"/>
<path d="M0 0 C0.98482361 -0.025746 1.96964722 -0.051492 2.98431396 -0.07801819 C7.50243891 -0.16197227 12.02039197 -0.22805756 16.5390625 -0.27441406 C18.92344724 -0.30606088 21.30767446 -0.35382149 23.69140625 -0.41796875 C27.12332541 -0.50912167 30.55240539 -0.5480116 33.98535156 -0.57592773 C35.05009705 -0.61408096 36.11484253 -0.65223419 37.21185303 -0.69154358 C44.41434743 -0.6725996 44.41434743 -0.6725996 47.05090332 1.83084106 C48.37230475 3.90810341 49.37249025 5.99461343 50.37597656 8.24047852 C51.12784297 9.40513005 51.88651006 10.56542968 52.65307617 11.72045898 C54.70687897 15.91653788 54.97349553 18.96640632 54.94238281 23.56079102 C54.94858139 24.34130829 54.95477997 25.12182556 54.96116638 25.92599487 C54.96823529 27.57150027 54.96514191 29.21707764 54.95239258 30.86254883 C54.93862445 33.33887883 54.97251699 35.81134749 55.01074219 38.28735352 C55.0589341 48.41782784 53.77238286 55.99779322 49.37597656 65.24047852 C47.64932241 69.13091445 47.11099919 71.83034273 46.37597656 76.24047852 C29.21597656 76.24047852 12.05597656 76.24047852 -5.62402344 76.24047852 C-6.28402344 73.27047852 -6.94402344 70.30047852 -7.62402344 67.24047852 C-8.7915186 64.443582 -10.12063725 61.80642726 -11.50292969 59.11157227 C-14.49581478 51.44686655 -14.00344643 42.4386967 -14.13891602 34.30688477 C-14.17043064 32.85624248 -14.218057 31.40585293 -14.2824707 29.95629883 C-14.79104801 18.28690611 -12.41006288 10.77011906 -5.62402344 1.24047852 C-4.01080545 -0.37273947 -2.2327367 0.05616566 0 0 Z " fill="#F8CECE" transform="translate(95.6240234375,369.759521484375)"/>
<path d="M0 0 C1.46301461 0.02110751 2.92586434 0.07402073 4.38671875 0.15625 C5.10794922 0.1665625 5.82917969 0.176875 6.57226562 0.1875 C14.08689386 0.40316646 20.55503306 2.11146046 27.26171875 5.53125 C28.24527344 6.02367187 29.22882813 6.51609375 30.2421875 7.0234375 C33.10342333 8.67308795 35.55438134 10.52797782 38.07421875 12.65625 C37.67970974 16.40408559 36.7684588 19.49097256 35.26171875 22.90625 C33.27088576 27.70895295 32.02173182 32.53591707 30.88671875 37.59375 C30.72002686 38.32045898 30.55333496 39.04716797 30.3815918 39.79589844 C29.10335633 45.71241516 28.52212571 51.6246714 28.07421875 57.65625 C27.44370605 57.9464502 26.81319336 58.23665039 26.16357422 58.53564453 C13.86216297 64.19981003 1.56849445 69.8799819 -10.70352173 75.60757446 C-12.55957296 76.47284861 -14.41677386 77.335615 -16.27416992 78.19799805 C-22.36420418 81.02999577 -28.43640603 83.89220756 -34.47454834 86.83351135 C-37.39236481 88.25322534 -40.31628421 89.6601138 -43.24066162 91.06625366 C-44.64292949 91.74504937 -46.04214699 92.43018726 -47.43804932 93.12197876 C-49.38362699 94.08571211 -51.33863302 95.02717399 -53.296875 95.96484375 C-54.4098999 96.50939209 -55.5229248 97.05394043 -56.66967773 97.61499023 C-61.49061311 99.15666298 -65.19231348 98.37558016 -69.796875 96.46484375 C-70.64378906 96.01238281 -71.49070313 95.55992187 -72.36328125 95.09375 C-73.22824219 94.63871094 -74.09320313 94.18367188 -74.984375 93.71484375 C-75.94537109 93.19083984 -75.94537109 93.19083984 -76.92578125 92.65625 C-76.92578125 92.32625 -76.92578125 91.99625 -76.92578125 91.65625 C-75.73033691 91.61866577 -75.73033691 91.61866577 -74.51074219 91.58032227 C-70.89892903 91.46426211 -67.28737023 91.34158069 -63.67578125 91.21875 C-62.42152344 91.17943359 -61.16726562 91.14011719 -59.875 91.09960938 C-58.66972656 91.05771484 -57.46445313 91.01582031 -56.22265625 90.97265625 C-55.11245117 90.93599854 -54.00224609 90.89934082 -52.85839844 90.86157227 C-49.30452313 90.6357026 -49.30452313 90.6357026 -45.92578125 89.65625 C-44.71572673 86.02608643 -44.93779102 82.81502368 -45.06640625 79.05078125 C-45.6655181 49.44113525 -45.6655181 49.44113525 -38.05078125 41.28125 C-36.30331085 39.5340201 -34.5216787 37.87081516 -32.65820312 36.24804688 C-29.82186243 33.64193902 -27.605518 30.60338995 -25.30078125 27.53125 C-24.41252173 26.39138188 -23.52190548 25.25334624 -22.62890625 24.1171875 C-21.96858398 23.27172363 -21.96858398 23.27172363 -21.29492188 22.40917969 C-18.88373429 19.32210286 -16.46778694 16.23877235 -14.05078125 13.15625 C-13.61040527 12.59276855 -13.1700293 12.02928711 -12.71630859 11.44873047 C-11.87200941 10.37174281 -11.02003351 9.30072218 -10.15991211 8.23632812 C-8.89849115 6.66393025 -8.89849115 6.66393025 -7.78735352 4.93554688 C-5.37622393 1.50395391 -4.19118683 0.70061631 0 0 Z " fill="#F7A6A7" transform="translate(263.92578125,337.34375)"/>
<path d="M0 0 C5.94 1.98 11.88 3.96 18 6 C21.86162346 6.87730565 25.54759499 7.65893278 29.4375 8.25 C30.88116943 8.48456909 30.88116943 8.48456909 32.35400391 8.72387695 C41.5291815 10.17191265 50.73790619 11.29586913 60 12 C61.07306396 12.08685059 62.14612793 12.17370117 63.25170898 12.26318359 C78.25081054 13.31957856 93.28384649 13.24015206 108.3125 13.25 C109.39173988 13.2515465 109.39173988 13.2515465 110.49278259 13.25312424 C131.97431036 13.28202319 153.23192012 12.77381805 174.59960938 10.36376953 C180.05631245 9.78001827 185.52622377 9.38564719 191 9 C180.60680653 21.73948657 167.57966994 29.94197982 151 32 C142.34917049 32.56158941 133.66020158 32.39851106 124.99609375 32.36328125 C122.46509298 32.3627617 119.9340918 32.36328305 117.40309143 32.36479187 C112.11706524 32.36470251 106.83115539 32.35469281 101.54516602 32.33618164 C95.46537782 32.31501029 89.38577868 32.31150936 83.30596107 32.3177436 C77.41503438 32.32347099 71.52417429 32.31764482 65.63325691 32.30657005 C63.14515509 32.30274164 60.65704766 32.30155997 58.16894341 32.3031559 C54.68340391 32.30352982 51.1981437 32.29081569 47.71264648 32.2746582 C46.19499443 32.27837433 46.19499443 32.27837433 44.64668274 32.28216553 C36.46810289 32.22214121 28.7238018 30.90139625 20.70981503 29.37216663 C19.81557607 29.24935164 18.92133711 29.12653666 18 29 C16.50256881 30.49743119 16.66797307 31.98824239 16.4375 34.0625 C16.293125 35.361875 16.14875 36.66125 16 38 C15.40832031 38.18175781 14.81664063 38.36351562 14.20703125 38.55078125 C9.75907609 39.96570989 5.96030865 41.47980358 2 44 C1.34 44 0.68 44 0 44 C0 29.48 0 14.96 0 0 Z " fill="#4570C6" transform="translate(92,156)"/>
<path d="M0 0 C1.5134198 2.77440728 2.36380095 5.19827527 2.89453125 8.30859375 C3.11713623 9.54391846 3.11713623 9.54391846 3.34423828 10.80419922 C3.49876465 11.67318848 3.65329102 12.54217773 3.8125 13.4375 C5.1867144 20.76091209 6.94218328 27.39840762 9.8515625 34.2734375 C11.05194883 37.1233343 12.0221023 40.0663069 13 43 C-37.49 43 -87.98 43 -140 43 C-141.11887617 37.40561916 -140.64675966 36.48683938 -138.0625 31.6875 C-137.49660156 30.61886719 -136.93070313 29.55023438 -136.34765625 28.44921875 C-135.90292969 27.64097656 -135.45820313 26.83273437 -135 26 C-123.85054539 24.55196708 -116.15815778 28.62367145 -106.5625 33.5625 C-104.41688813 34.65302731 -102.26843642 35.73611344 -100.11106873 36.8032074 C-98.77932097 37.46313309 -97.45431055 38.1368913 -96.1375885 38.8263092 C-93.43219281 40.17725199 -91.45568463 41.02598766 -88.40576172 40.85205078 C-85.66890216 39.88273478 -83.06915077 38.78857848 -80.44140625 37.55078125 C-79.34892578 37.03966797 -78.25644531 36.52855469 -77.13085938 36.00195312 C-75.95330078 35.44443359 -74.77574219 34.88691406 -73.5625 34.3125 C-72.3147091 33.72666801 -71.06665688 33.14139235 -69.81835938 32.55664062 C-67.1994267 31.32898867 -64.5818702 30.09846962 -61.96533203 28.86572266 C-56.27146916 26.18446351 -50.56635864 23.52734572 -44.86209106 20.86831665 C-43.00208688 20.00097314 -41.1424581 19.13283005 -39.28295898 18.2644043 C-26.19889173 12.15419108 -13.10034813 6.0752139 0 0 Z " fill="#4570C6" transform="translate(291,403)"/>
<path d="M0 0 C17.82 0 35.64 0 54 0 C54 11.88 54 23.76 54 36 C36.18 36 18.36 36 0 36 C0 24.12 0 12.24 0 0 Z " fill="#6ADBDC" transform="translate(158,385)"/>
<path d="M0 0 C17.82 0 35.64 0 54 0 C54 11.88 54 23.76 54 36 C36.18 36 18.36 36 0 36 C0 24.12 0 12.24 0 0 Z " fill="#6ADBDC" transform="translate(20,385)"/>
<path d="M0 0 C3.88605989 2.26449757 5.66997119 5.2215749 8 9 C9.17214568 10.53096578 10.34534032 12.06131395 11.54101562 13.57397461 C12.82419394 15.20233972 14.07826654 16.84986591 15.328125 18.50390625 C17.20421321 20.97418281 19.11329045 23.41430738 21.046875 25.83984375 C21.54985107 26.47188721 22.05282715 27.10393066 22.57104492 27.75512695 C23.54715185 28.97889565 24.52636607 30.20019393 25.5090332 31.41870117 C27.516494 33.94239756 28.97109547 35.9132864 30 39 C16.66033621 40.31930741 16.66033621 40.31930741 11 39 C8.04702572 36.41722366 6.8168983 34.2684394 5.25390625 30.69921875 C3.83573285 27.64639065 2.84729146 26.72456685 0 25 C-2.45598704 24.5325758 -2.45598704 24.5325758 -5.13574219 24.56762695 C-6.15649841 24.54783279 -7.17725464 24.52803864 -8.22894287 24.50764465 C-9.32386047 24.50125473 -10.41877808 24.49486481 -11.546875 24.48828125 C-12.6732135 24.47033005 -13.799552 24.45237885 -14.96002197 24.43388367 C-18.55664326 24.37971205 -22.15313131 24.34586212 -25.75 24.3125 C-28.18882065 24.27933307 -30.62762371 24.24484401 -33.06640625 24.20898438 C-39.04415136 24.12398155 -45.02191357 24.05566055 -51 24 C-50.08076752 22.57342845 -49.15498698 21.15107522 -48.2265625 19.73046875 C-47.71174316 18.93793701 -47.19692383 18.14540527 -46.66650391 17.32885742 C-36.54615533 3.18616696 -16.78143225 -3.20277161 0 0 Z " fill="#F6A5A7" transform="translate(143,338)"/>
<path d="M0 0 C0.00364563 0.89091843 0.00729126 1.78183685 0.01104736 2.69975281 C0.048935 11.10133643 0.10579645 19.50253217 0.18390274 27.90384197 C0.2233896 32.22293796 0.25557201 36.54182971 0.27099609 40.86108398 C0.28615494 45.03049624 0.32058611 49.19934705 0.36830902 53.36850929 C0.38313091 54.95803761 0.39104148 56.54764608 0.39188385 58.13724327 C0.39425298 60.366435 0.42132445 62.59407439 0.45410156 64.82299805 C0.46298401 66.09096725 0.47186646 67.35893646 0.48101807 68.66532898 C1.08726911 72.56073972 2.40879111 74.10949435 5 77 C5.45410156 79.77075195 5.45410156 79.77075195 5.390625 82.73828125 C5.37128906 84.33833008 5.37128906 84.33833008 5.3515625 85.97070312 C5.30128906 87.62489258 5.30128906 87.62489258 5.25 89.3125 C5.23195313 90.43462891 5.21390625 91.55675781 5.1953125 92.71289062 C5.14828719 95.47562732 5.07654715 98.23792362 5 101 C-0.94 101 -6.88 101 -13 101 C-13.05380781 96.89565949 -13.09358213 92.79202007 -13.125 88.6875 C-13.14175781 87.52025391 -13.15851563 86.35300781 -13.17578125 85.15039062 C-13.18222656 84.03212891 -13.18867188 82.91386719 -13.1953125 81.76171875 C-13.20578613 80.73006592 -13.21625977 79.69841309 -13.22705078 78.63549805 C-13 76 -13 76 -11 73 C-10.34 73 -9.68 73 -9 73 C-9 49.9 -9 26.8 -9 3 C-3 0 -3 0 0 0 Z " fill="#FEE991" transform="translate(382,101)"/>
<path d="M0 0 C3.30673402 1.93233017 5.65948384 3.92016685 7.5625 7.3125 C7.40327523 10.73583251 6.9993763 11.8756237 4.5625 14.3125 C1.68562519 14.09120194 0.02298856 13.67771506 -2.25 11.875 C-3.4375 10.3125 -3.4375 10.3125 -3.4375 8.3125 C-10.21528181 6.96048418 -10.21528181 6.96048418 -16.5 9.125 C-20.03492727 13.11604692 -19.70476392 16.36998199 -19.6640625 21.5390625 C-19.37868833 25.03243601 -18.41177272 27.42702449 -16.4375 30.3125 C-13.96371876 31.54939062 -12.25834683 31.44560087 -9.5 31.4375 C-8.62472656 31.44007813 -7.74945313 31.44265625 -6.84765625 31.4453125 C-4.29290944 31.41072003 -4.29290944 31.41072003 -1.4375 30.3125 C-1.1075 28.6625 -0.7775 27.0125 -0.4375 25.3125 C-1.06398438 25.33570313 -1.69046875 25.35890625 -2.3359375 25.3828125 C-3.56183594 25.40988281 -3.56183594 25.40988281 -4.8125 25.4375 C-6.03066406 25.47230469 -6.03066406 25.47230469 -7.2734375 25.5078125 C-9.4375 25.3125 -9.4375 25.3125 -11.4375 23.3125 C-11.1875 20.75 -11.1875 20.75 -10.4375 18.3125 C-7.62183745 16.90466873 -5.2011293 17.1048186 -2.0625 17.0625 C-0.34933594 17.02382813 -0.34933594 17.02382813 1.3984375 16.984375 C4.89329669 17.34680484 6.27768357 17.64688083 8.5625 20.3125 C9.09375 23.30859375 9.09375 23.30859375 9.0625 26.75 C9.0728125 27.88308594 9.083125 29.01617187 9.09375 30.18359375 C8.46146418 33.90757123 7.48021171 35.00065192 4.5625 37.3125 C-2.15079074 41.48965868 -9.75145896 41.07517221 -17.4375 40.3125 C-23.14178377 38.57600772 -26.41237788 34.51160596 -29.515625 29.609375 C-31.81117701 23.8899488 -31.5792671 15.47830877 -29.4921875 9.69140625 C-23.22521382 -0.73384242 -11.34514185 -5.24765925 0 0 Z " fill="#4C75C4" transform="translate(371.4375,349.6875)"/>
<path d="M0 0 C4.6630404 5.0228929 6.86643766 11.14208913 9.42871094 17.3828125 C10.24737313 19.36862805 11.08761106 21.3443315 11.9296875 23.3203125 C12.45967005 24.59579956 12.98835948 25.87182486 13.515625 27.1484375 C13.99290039 28.29489746 14.47017578 29.44135742 14.96191406 30.62255859 C16.08396794 34.27319203 16.26386374 37.2023736 16 41 C15 42 15 42 12.125 42.3125 C9 42 9 42 7.1875 40.3125 C5.92610169 37.85609277 5.48852864 35.70259424 5 33 C-0.11965266 32.89811637 -4.97412057 32.9490848 -10 34 C-12.43680384 36.38635242 -13.32828877 38.68672773 -14 42 C-16.875 42.125 -16.875 42.125 -20 42 C-20.66 41.34 -21.32 40.68 -22 40 C-21.51590733 32.79670108 -18.6807433 26.43487558 -16.01733398 19.81933594 C-15.18630847 17.74702872 -14.3768633 15.66711826 -13.56835938 13.5859375 C-13.0403495 12.25990348 -12.51109533 10.93436409 -11.98046875 9.609375 C-11.50504639 8.41280273 -11.02962402 7.21623047 -10.53979492 5.98339844 C-8.15399578 1.36084167 -5.33749887 -1.06749977 0 0 Z " fill="#4B74C4" transform="translate(436,348)"/>
<path d="M0 0 C0.93779297 -0.01998047 1.87558594 -0.03996094 2.84179688 -0.06054688 C8.76815651 -0.05637044 12.17766055 0.50322972 16.6875 4.4375 C19.2977743 8.59020911 19.52473589 13.67362778 18.6875 18.4375 C16.75705138 22.00882994 14.60209582 24.13263473 10.6875 25.4375 C8.29259014 25.50720052 5.89582309 25.52198003 3.5 25.5 C2.22769531 25.49097656 0.95539063 25.48195313 -0.35546875 25.47265625 C-1.81919922 25.45525391 -1.81919922 25.45525391 -3.3125 25.4375 C-3.28929687 26.42492187 -3.26609375 27.41234375 -3.2421875 28.4296875 C-3.21511719 30.35167969 -3.21511719 30.35167969 -3.1875 32.3125 C-3.16429687 33.58867187 -3.14109375 34.86484375 -3.1171875 36.1796875 C-3.3125 39.4375 -3.3125 39.4375 -5.3125 41.4375 C-8.3125 41.75 -8.3125 41.75 -11.3125 41.4375 C-13.77913039 37.73755442 -13.61855136 34.87668703 -13.61328125 30.59375 C-13.61756638 29.82824829 -13.6218515 29.06274658 -13.62626648 28.27404785 C-13.63200517 26.65682972 -13.63251342 25.03958577 -13.62817383 23.42236328 C-13.62501149 20.94649347 -13.64848531 18.47181603 -13.67382812 15.99609375 C-13.67610092 14.42448068 -13.67680471 12.85286438 -13.67578125 11.28125 C-13.684991 10.54056274 -13.69420074 9.79987549 -13.70368958 9.03674316 C-13.67752866 6.13531404 -13.64670474 3.97070245 -12.08203125 1.47436523 C-8.42948657 -0.66586066 -4.11678514 -0.03074313 0 0 Z " fill="#4C75C4" transform="translate(398.3125,348.5625)"/>
<path d="M0 0 C3.49077092 2.4047533 5.27537362 5.05497381 6.8125 8.9375 C7.35826237 12.1457212 7.37372882 15.2523212 7.3125 18.5 C7.32796875 19.32435547 7.3434375 20.14871094 7.359375 20.99804688 C7.32451588 26.44914244 6.46886975 29.65671499 2.8125 33.9375 C-0.08151699 36.68042373 -2.09202678 37.3880237 -6.0625 37.4375 C-9.64924294 37.33169637 -11.86423544 36.94054856 -14.6875 34.6875 C-19.57047409 29.3162285 -19.55240026 25.06161854 -19.5625 18.0625 C-19.58699219 17.17691406 -19.61148438 16.29132813 -19.63671875 15.37890625 C-19.66204988 9.71317765 -19.00480632 6.40859912 -15.1875 1.9375 C-10.34896557 -1.98563602 -5.78517908 -1.92839303 0 0 Z " fill="#3C65CC" transform="translate(161.1875,208.0625)"/>
<path d="M0 0 C5.22461641 1.84398226 7.42687419 4.13543794 10 9 C10.56683979 12.34908144 10.55981645 15.61040091 10.5 19 C10.51546875 19.8765625 10.5309375 20.753125 10.546875 21.65625 C10.51314329 27.25571331 9.79479128 30.61728331 6 35 C2.33385144 38.47474321 -0.63138495 38.55965298 -5.51953125 38.4296875 C-9.54378559 37.73257257 -11.25081366 35.96066221 -14 33 C-16.04905049 28.90189901 -15.31721725 23.69192814 -15.375 19.1875 C-15.43107422 17.5468457 -15.43107422 17.5468457 -15.48828125 15.87304688 C-15.57710867 7.77494693 -15.57710867 7.77494693 -12.6640625 3.86328125 C-7.95759915 0.57151729 -5.82463283 -0.49361295 0 0 Z " fill="#3A63CC" transform="translate(251,207)"/>
<path d="M0 0 C1.14726562 0.28166016 2.29453125 0.56332031 3.4765625 0.85351562 C6.27760314 1.54210478 9.07695188 2.23686875 11.875 2.9375 C10.51853503 5.8391976 8.96310821 8.29897472 7.01171875 10.8359375 C6.17543945 11.92648437 6.17543945 11.92648437 5.32226562 13.0390625 C4.74154297 13.78929687 4.16082031 14.53953125 3.5625 15.3125 C2.99337891 16.055 2.42425781 16.7975 1.83789062 17.5625 C-1.39610709 21.76558314 -4.69971001 25.88884579 -8.125 29.9375 C-13.0868472 25.09903799 -17.46149738 19.85300545 -21.84521484 14.49951172 C-23.07597459 12.99733681 -24.31324729 11.50050529 -25.55078125 10.00390625 C-26.27652344 9.11574219 -27.00226563 8.22757812 -27.75 7.3125 C-28.40226563 6.51585937 -29.05453125 5.71921875 -29.7265625 4.8984375 C-31.125 2.9375 -31.125 2.9375 -31.125 0.9375 C-29.7265625 -0.38671875 -29.7265625 -0.38671875 -27.75 -1.75 C-27.12351563 -2.20761719 -26.49703125 -2.66523438 -25.8515625 -3.13671875 C-17.83713846 -5.85794869 -7.87903953 -1.97434072 0 0 Z " fill="#DCE8FB" transform="translate(182.125,333.0625)"/>
<path d="M0 0 C4.75 0.75 4.75 0.75 7 3 C7.22705078 5.33837891 7.22705078 5.33837891 7.1953125 8.2265625 C7.18886719 9.2578125 7.18242187 10.2890625 7.17578125 11.3515625 C7.15902344 12.43179687 7.14226562 13.51203125 7.125 14.625 C7.11597656 15.71296875 7.10695313 16.8009375 7.09765625 17.921875 C7.07403409 20.61480152 7.04109556 23.30729255 7 26 C8.65 26.33 10.3 26.66 12 27 C12 28.65 12 30.3 12 32 C9.525 32.495 9.525 32.495 7 33 C7.04125 34.11375 7.0825 35.2275 7.125 36.375 C7 40 7 40 5 42 C2.5 42.25 2.5 42.25 0 42 C-2 40 -2 40 -2.125 36.875 C-2.08375 35.92625 -2.0425 34.9775 -2 34 C-3.04800781 34.03480469 -4.09601563 34.06960938 -5.17578125 34.10546875 C-6.55467147 34.13360937 -7.93357902 34.16090924 -9.3125 34.1875 C-10.00279297 34.21263672 -10.69308594 34.23777344 -11.40429688 34.26367188 C-14.25455505 34.30497996 -16.49148198 34.26738519 -19.04296875 32.92578125 C-20.24296643 30.51109205 -20.25944444 28.65095268 -19.74804688 26.02001953 C-18.16893775 21.75580644 -15.11138585 18.40997129 -12.25 14.9375 C-11.62867188 14.16083984 -11.00734375 13.38417969 -10.3671875 12.58398438 C-6.96476021 8.34530649 -3.49197814 4.16505026 0 0 Z " fill="#4C75C4" transform="translate(377,404)"/>
<path d="M0 0 C-1.34385546 2.86657367 -2.87136904 5.31489899 -4.79296875 7.828125 C-5.34146484 8.54613281 -5.88996094 9.26414062 -6.45507812 10.00390625 C-7.02677734 10.74511719 -7.59847656 11.48632812 -8.1875 12.25 C-8.73986328 12.97574219 -9.29222656 13.70148438 -9.86132812 14.44921875 C-13.71823857 19.47529717 -17.77379892 24.28096844 -22 29 C-25.88869018 25.27333858 -29.22056746 21.32943674 -32.5 17.0625 C-33.42619219 15.86519553 -34.35326929 14.66857505 -35.28125 13.47265625 C-35.72855469 12.89402832 -36.17585937 12.31540039 -36.63671875 11.71923828 C-37.99830054 10.00214319 -39.41317394 8.34336421 -40.84375 6.68359375 C-43 4 -43 4 -43 2 C-38.77111177 1.01962818 -34.5418418 0.04091311 -30.3125 -0.9375 C-29.11431641 -1.21529297 -27.91613281 -1.49308594 -26.68164062 -1.77929688 C-25.52470703 -2.04677734 -24.36777344 -2.31425781 -23.17578125 -2.58984375 C-22.11270752 -2.83597412 -21.04963379 -3.08210449 -19.9543457 -3.33569336 C-11.4161547 -5.25556921 -7.472722 -4.54224278 0 0 Z " fill="#DCE8FB" transform="translate(252,334)"/>
<path d="M0 0 C0 14.19 0 28.38 0 43 C-2.64 41.68 -5.28 40.36 -8 39 C-10.31623971 38.27617509 -12.645752 37.588562 -15 37 C-15.50615271 33.12577792 -16.00382721 29.25051183 -16.5 25.375 C-16.64308594 24.28058594 -16.78617187 23.18617188 -16.93359375 22.05859375 C-17.06894531 20.99511719 -17.20429688 19.93164062 -17.34375 18.8359375 C-17.46943359 17.86188965 -17.59511719 16.8878418 -17.72460938 15.88427734 C-18.49716672 7.792972 -18.49716672 7.792972 -16.91015625 5.26171875 C-14.22594908 3.48871483 -11.52034628 2.71151998 -8.4375 1.8125 C-7.28121094 1.46832031 -6.12492187 1.12414062 -4.93359375 0.76953125 C-2 0 -2 0 0 0 Z " fill="#4570C6" transform="translate(311,157)"/>
<path d="M0 0 C2.625 0.375 2.625 0.375 5 1 C5.15855469 1.62648438 5.31710938 2.25296875 5.48046875 2.8984375 C6.76456812 8.066614 6.76456812 8.066614 10.5 11.5 C11.325 11.665 12.15 11.83 13 12 C13.99 12.33 14.98 12.66 16 13 C21.31066603 13.40080498 24.37741428 12.58004784 29 10 C29.66 10 30.32 10 31 10 C31.99 7.03 32.98 4.06 34 1 C36.375 0.375 36.375 0.375 39 0 C41 2 41 2 41.5 5.125 C40.8231034 10.37094864 38.76290511 13.34823554 35 17 C29.02618881 20.98254079 23.16005422 22.46951175 16 22 C8.58294868 20.35894509 3.29999065 17.60331869 -0.875 11.0625 C-2.08456717 7.76978938 -2.39514294 5.47725784 -2 2 C-1.34 1.34 -0.68 0.68 0 0 Z " fill="#3E66CC" transform="translate(182,257)"/>
<path d="M0 0 C3.5 0.125 3.5 0.125 4.5 1.125 C4.57179964 2.64428038 4.58392007 4.16667482 4.5625 5.6875 C4.55347656 6.51378906 4.54445313 7.34007812 4.53515625 8.19140625 C4.52355469 8.82949219 4.51195312 9.46757812 4.5 10.125 C5.13808594 10.11339844 5.77617187 10.10179687 6.43359375 10.08984375 C7.25988281 10.08082031 8.08617187 10.07179688 8.9375 10.0625 C9.76121094 10.05089844 10.58492188 10.03929687 11.43359375 10.02734375 C13.5 10.125 13.5 10.125 14.5 11.125 C14.6875 14.0625 14.6875 14.0625 14.5 17.125 C12.5 19.125 12.5 19.125 10.5546875 19.3203125 C8.53645833 19.25520833 6.51822917 19.19010417 4.5 19.125 C4.54125 20.40375 4.5825 21.6825 4.625 23 C4.6953125 25.1796875 4.6953125 25.1796875 4.5 27.125 C2.5 29.125 2.5 29.125 -0.5625 29.3125 C-3.5 29.125 -3.5 29.125 -4.5 28.125 C-4.57179964 26.60571962 -4.58392007 25.08332518 -4.5625 23.5625 C-4.55347656 22.73621094 -4.54445313 21.90992188 -4.53515625 21.05859375 C-4.52355469 20.42050781 -4.51195312 19.78242188 -4.5 19.125 C-5.13808594 19.13660156 -5.77617187 19.14820313 -6.43359375 19.16015625 C-7.67302734 19.17369141 -7.67302734 19.17369141 -8.9375 19.1875 C-10.17306641 19.20490234 -10.17306641 19.20490234 -11.43359375 19.22265625 C-13.5 19.125 -13.5 19.125 -14.5 18.125 C-14.625 14.625 -14.625 14.625 -14.5 11.125 C-13.5 10.125 -13.5 10.125 -11.43359375 10.02734375 C-10.19802734 10.04474609 -10.19802734 10.04474609 -8.9375 10.0625 C-8.11121094 10.07152344 -7.28492188 10.08054687 -6.43359375 10.08984375 C-5.79550781 10.10144531 -5.15742188 10.11304688 -4.5 10.125 C-4.51160156 9.48691406 -4.52320313 8.84882813 -4.53515625 8.19140625 C-4.54417969 7.36511719 -4.55320312 6.53882813 -4.5625 5.6875 C-4.57410156 4.86378906 -4.58570313 4.04007812 -4.59765625 3.19140625 C-4.42921386 -0.37283479 -3.69396427 0.1319273 0 0 Z " fill="#4C75C4" transform="translate(414.5,410.875)"/>
<path d="M0 0 C0.75539062 0.75667969 1.51078125 1.51335937 2.2890625 2.29296875 C3.78893622 3.79068127 5.29676775 5.28098223 6.8359375 6.73828125 C7.34382813 7.25777344 7.85171875 7.77726562 8.375 8.3125 C8.89835937 8.82425781 9.42171875 9.33601563 9.9609375 9.86328125 C11 12 11 12 10 20 C3.73 20 -2.54 20 -9 20 C-10 12 -10 12 -7.91015625 8.59375 C-6.98347723 7.54219934 -6.03339667 6.51086718 -5.0625 5.5 C-4.58103516 4.96375 -4.09957031 4.4275 -3.60351562 3.875 C-2.42226098 2.56509386 -1.21373879 1.27986515 0 0 Z " fill="#F4A5A7" transform="translate(201,341)"/>
<path d="M0 0 C5.67115222 0.82866151 10.98691001 2.41244687 16.46484375 4.0625 C34.67886321 8.8927372 54.50434477 6.22726711 72 0 C72.99 0 73.98 0 75 0 C75 0.99 75 1.98 75 3 C66.93333319 5.23677487 58.84018985 7.34937292 50.6875 9.25 C49.97223145 9.42499023 49.25696289 9.59998047 48.52001953 9.78027344 C37.12138668 12.37359938 27.02068939 10.1699481 15.875 7.5 C14.42731821 7.16175356 12.97940261 6.82450621 11.53125 6.48828125 C8.01806478 5.67034688 4.50823002 4.83896615 1 4 C0.67 2.68 0.34 1.36 0 0 Z " fill="#EEC9CE" transform="translate(164,318)"/>
<path d="M0 0 C6.27 0 12.54 0 19 0 C19 2.31 19 4.62 19 7 C12.73 7 6.46 7 0 7 C0 4.69 0 2.38 0 0 Z " fill="#F5A5A7" transform="translate(192,370)"/>
<path d="M0 0 C-4.26534515 4.26534515 -10.58025463 6.91509665 -16.5625 7.125 C-21.30810678 5.57189233 -25.62294117 3.386686 -30 1 C-30 0.67 -30 0.34 -30 0 C-25.56285102 -0.19652332 -21.12527385 -0.38067922 -16.6875 -0.5625 C-14.79354492 -0.64661133 -14.79354492 -0.64661133 -12.86132812 -0.73242188 C-11.65283203 -0.78076172 -10.44433594 -0.82910156 -9.19921875 -0.87890625 C-8.08377686 -0.9260376 -6.96833496 -0.97316895 -5.8190918 -1.02172852 C-3 -1 -3 -1 0 0 Z " fill="#F1A4A8" transform="translate(217,429)"/>
<path d="M0 0 C1.60875 -0.04125 3.2175 -0.0825 4.875 -0.125 C5.77992188 -0.14820313 6.68484375 -0.17140625 7.6171875 -0.1953125 C10 0 10 0 12 2 C12.375 4.4375 12.375 4.4375 12 7 C10.5 8.8125 10.5 8.8125 8 10 C5.27920155 10.23884872 2.74185932 10.13709297 0 10 C0 6.7 0 3.4 0 0 Z " fill="#F3E295" transform="translate(395,357)"/>
<path d="M0 0 C2.78633115 4.17949673 4 6.93375326 4 12 C1.36 12 -1.28 12 -4 12 C-3.45660208 7.43545749 -2.20536179 4.0271824 0 0 Z " fill="#E6DA98" transform="translate(433,361)"/>
<path d="M0 0 C0.33 0 0.66 0 1 0 C1 3.63 1 7.26 1 11 C-1.64 11 -4.28 11 -7 11 C-5.23867546 6.99698968 -2.73867517 3.3971023 0 0 Z " fill="#EBDD97" transform="translate(374,419)"/>
<path d="M0 0 C4.64285714 4.28571429 4.64285714 4.28571429 6 7 C6 9.98787084 4.75870171 11.65506438 3 14 C2.34 14 1.68 14 1 14 C0.04738513 9.23692563 -0.08333357 4.8333472 0 0 Z " fill="#CEDCF6" transform="translate(218,362)"/>
<path d="M0 0 C0.33 0 0.66 0 1 0 C0.67 4.62 0.34 9.24 0 14 C-1.65 12.35 -3.3 10.7 -5 9 C-3.75471468 5.55151758 -2.38532951 2.80016942 0 0 Z " fill="#D5E2F8" transform="translate(184,362)"/>
<path d="M0 0 C-3.28605741 1.95628721 -5.77039461 2.2568041 -9.5703125 2.265625 C-11.16166016 2.26949219 -11.16166016 2.26949219 -12.78515625 2.2734375 C-13.88730469 2.26570313 -14.98945313 2.25796875 -16.125 2.25 C-17.23488281 2.25773437 -18.34476563 2.26546875 -19.48828125 2.2734375 C-20.54660156 2.27085937 -21.60492188 2.26828125 -22.6953125 2.265625 C-23.66484863 2.26336914 -24.63438477 2.26111328 -25.63330078 2.25878906 C-28 2 -28 2 -30 0 C-25.56285102 -0.19652332 -21.12527385 -0.38067922 -16.6875 -0.5625 C-14.79354492 -0.64661133 -14.79354492 -0.64661133 -12.86132812 -0.73242188 C-11.65283203 -0.78076172 -10.44433594 -0.82910156 -9.19921875 -0.87890625 C-8.08377686 -0.9260376 -6.96833496 -0.97316895 -5.8190918 -1.02172852 C-3 -1 -3 -1 0 0 Z " fill="#D199AE" transform="translate(217,429)"/>
</svg>
